<svg xmlns="http://www.w3.org/2000/svg" xmlns:xlink="http://www.w3.org/1999/xlink" aria-hidden="true" focusable="false" role="img" class="iconify iconify--whh" width="1.01em" height="1em" preserveAspectRatio="xMidYMid meet" viewBox="0 0 1025 1024" style="transform: rotate(360deg);"><path d="M960.356 1024h-320q-27 0-45.5-18.5t-18.5-45.5V640q0-27 18.5-45.5t45.5-18.5h320q26 0 45 18.5t19 45.5v320q0 27-19 45.5t-45 18.5zm-64-288q0-13-9.5-22.5t-22.5-9.5h-128q-13 0-22.5 9.5t-9.5 22.5v128q0 13 9.5 22.5t22.5 9.5h128q13 0 22.5-9.5t9.5-22.5V736zm64-288h-320q-27 0-45.5-19t-18.5-45V64q0-27 18.5-45.5t45.5-18.5h320q26 0 45 18.5t19 45.5v320q0 26-19 45t-45 19zm-64-288q0-13-9.5-22.5t-22.5-9.5h-128q-13 0-22.5 9.5t-9.5 22.5v128q0 13 9.5 22.5t22.5 9.5h128q13 0 22.5-9.5t9.5-22.5V160zm-512 864h-320q-26 0-45-18.5t-19-45.5V640q0-27 19-45.5t45-18.5h320q27 0 45.5 18.5t18.5 45.5v320q0 27-19 45.5t-45 18.5zm-64-288q0-13-9.5-22.5t-22.5-9.5h-128q-13 0-22.5 9.5t-9.5 22.5v128q0 13 9.5 22.5t22.5 9.5h128q13 0 22.5-9.5t9.5-22.5V736zm64-288h-320q-26 0-45-19t-19-45V64q0-27 19-45.5t45-18.5h320q27 0 45.5 18.5t18.5 45.5v320q0 26-19 45t-45 19zm-64-288q0-13-9.5-22.5t-22.5-9.5h-128q-13 0-22.5 9.5t-9.5 22.5v128q0 13 9.5 22.5t22.5 9.5h128q13 0 22.5-9.5t9.5-22.5V160z" fill="currentColor"></path></svg>